# xmcd
#
# Track frame offsets:
#      150
#      10215
#      23792
#      37545
#      50052
#      64137
#      80012
#      93977
#      106710
#      118122
#      134225
#      149275
#      162240
#      180390
#      195967
#      206292
#      218927
#      231710
#      244340
#      258215
# 
# Disc length: 3660 seconds
#
# Revision: 4
# Processed by: cddbd v1.4PL0 Copyright (c) Steve Scherf et al.
#
# Submitted via: FreeRIP 1.21
#
DISCID=170e4a14
DTITLE=Merle Haggard - Vintage Collections
DYEAR=1995
DGENRE=country
TTITLE0=Mama Tried
TTITLE1=I'm A Lonesome Fugitive
TTITLE2=Making Believe
TTITLE3=Worried Unhappy Lonesome and Sorry
TTITLE4=Branded Man
TTITLE5=They're Tearing the Labor Camps Down
TTITLE6=White Line Fever (live)
TTITLE7=Sing Me Back Home
TTITLE8=Someday We'll Look Back
TTITLE9=Mississippi Delta Blues
TTITLE10=Daddy Frank ( The Guitar Man)
TTITLE11=Swinging Doors
TTITLE12=Family Bible (live)
TTITLE13=Hungry Eyes
TTITLE14=Blues Stay Away From Me
TTITLE15=The Bottle Let Me Down
TTITLE16=Streets Of Berlin
TTITLE17=Turnin' Off A Memory
TTITLE18=Okie From Muskogee (live)
TTITLE19=The Fightin' Side Of Me (live)
EXTD=
EXTT0=
EXTT1=
EXTT2=
EXTT3=
EXTT4=
EXTT5=
EXTT6=
EXTT7=
EXTT8=
EXTT9=
EXTT10=
EXTT11=
EXTT12=
EXTT13=
EXTT14=
EXTT15=
EXTT16=Previously Unrelaeased
EXTT17=
EXTT18=
EXTT19=
PLAYORDER=
